<?xml version="1.0" encoding="utf-8"?>
<!-- Generator: Adobe Illustrator 16.0.0, SVG Export Plug-In . SVG Version: 6.00 Build 0)  -->
<!DOCTYPE svg PUBLIC "-//W3C//DTD SVG 1.1//EN" "http://www.w3.org/Graphics/SVG/1.1/DTD/svg11.dtd">
<svg version="1.1" id="Layer_1" xmlns="http://www.w3.org/2000/svg" xmlns:xlink="http://www.w3.org/1999/xlink" x="0px" y="0px"
	 width="40px" height="40px" viewBox="236 236 40 40" enable-background="new 236 236 40 40" xml:space="preserve">
<g id="Layer_1_1_">
</g>
<g>
	<path fill="#FFFFFF" d="M256,276c-11.045,0-20-8.954-20-20s8.955-20,20-20c11.046,0,20,8.954,20,20S267.046,276,256,276z"/>
	<path fill="#FFFFFF" d="M256,276c11.046,0,20-8.954,20-20c0-5.325-2.085-10.16-5.478-13.744l-28.449,28.091
		C245.675,273.844,250.585,276,256,276z"/>
	<path fill="#080C23" d="M247.269,248.68v5.291h2.646v7.938c0.209,6.492,3.777,7.844,7.938,8.291
		c2.419-0.12,5.382-1.017,6.879-2.206v-4.497c-1.927,1.873-7.098,3.708-8.025-1.588l-0.089-8.025l8.162-0.003l-0.048-5.289h-8.114
		l0.006-6.699l-3.092-0.004C253.755,247.681,250.677,248.456,247.269,248.68z"/>
	<g>
		<polygon fill="#080C23" points="264.78,253.881 264.732,248.592 264.106,248.592 258.748,253.883 		"/>
		<path fill="#080C23" d="M257.853,270.2c2.599,0.021,5.381-1.017,6.879-2.206v-4.497c-1.927,1.873-7.098,3.708-8.025-1.588
			l-0.066-5.944l-6.69,6.606C250.375,268.494,253.837,269.768,257.853,270.2z"/>
	</g>
</g>
</svg>
